<?xml version="1.0" standalone="no"?><svg xmlns="http://www.w3.org/2000/svg" viewBox="0 0 1440 320"><path fill="#00cba9" fill-opacity="1" d="M0,96L13.3,112C26.7,128,53,160,80,165.3C106.7,171,133,149,160,128C186.7,107,213,85,240,69.3C266.7,53,293,43,320,48C346.7,53,373,75,400,80C426.7,85,453,75,480,101.3C506.7,128,533,192,560,186.7C586.7,181,613,107,640,112C666.7,117,693,203,720,218.7C746.7,235,773,181,800,181.3C826.7,181,853,235,880,256C906.7,277,933,267,960,250.7C986.7,235,1013,213,1040,192C1066.7,171,1093,149,1120,133.3C1146.7,117,1173,107,1200,90.7C1226.7,75,1253,53,1280,37.3C1306.7,21,1333,11,1360,53.3C1386.7,96,1413,192,1427,240L1440,288L1440,320L1426.7,320C1413.3,320,1387,320,1360,320C1333.3,320,1307,320,1280,320C1253.3,320,1227,320,1200,320C1173.3,320,1147,320,1120,320C1093.3,320,1067,320,1040,320C1013.3,320,987,320,960,320C933.3,320,907,320,880,320C853.3,320,827,320,800,320C773.3,320,747,320,720,320C693.3,320,667,320,640,320C613.3,320,587,320,560,320C533.3,320,507,320,480,320C453.3,320,427,320,400,320C373.3,320,347,320,320,320C293.3,320,267,320,240,320C213.3,320,187,320,160,320C133.3,320,107,320,80,320C53.3,320,27,320,13,320L0,320Z"></path></svg>