<?xml version="1.0" standalone="no"?><svg xmlns="http://www.w3.org/2000/svg" viewBox="0 0 1440 320"><path fill="#00cba9" fill-opacity="1" d="M0,96L26.7,85.3C53.3,75,107,53,160,42.7C213.3,32,267,32,320,69.3C373.3,107,427,181,480,213.3C533.3,245,587,235,640,197.3C693.3,160,747,96,800,85.3C853.3,75,907,117,960,112C1013.3,107,1067,53,1120,64C1173.3,75,1227,149,1280,176C1333.3,203,1387,181,1413,170.7L1440,160L1440,0L1413.3,0C1386.7,0,1333,0,1280,0C1226.7,0,1173,0,1120,0C1066.7,0,1013,0,960,0C906.7,0,853,0,800,0C746.7,0,693,0,640,0C586.7,0,533,0,480,0C426.7,0,373,0,320,0C266.7,0,213,0,160,0C106.7,0,53,0,27,0L0,0Z"></path></svg>