<?xml version="1.0" standalone="no"?><svg xmlns="http://www.w3.org/2000/svg" viewBox="0 0 1440 320"><path fill="#00cba9" fill-opacity="1" d="M0,64L18.5,64C36.9,64,74,64,111,69.3C147.7,75,185,85,222,96C258.5,107,295,117,332,117.3C369.2,117,406,107,443,90.7C480,75,517,53,554,69.3C590.8,85,628,139,665,170.7C701.5,203,738,213,775,208C812.3,203,849,181,886,149.3C923.1,117,960,75,997,80C1033.8,85,1071,139,1108,176C1144.6,213,1182,235,1218,229.3C1255.4,224,1292,192,1329,197.3C1366.2,203,1403,245,1422,266.7L1440,288L1440,0L1421.5,0C1403.1,0,1366,0,1329,0C1292.3,0,1255,0,1218,0C1181.5,0,1145,0,1108,0C1070.8,0,1034,0,997,0C960,0,923,0,886,0C849.2,0,812,0,775,0C738.5,0,702,0,665,0C627.7,0,591,0,554,0C516.9,0,480,0,443,0C406.2,0,369,0,332,0C295.4,0,258,0,222,0C184.6,0,148,0,111,0C73.8,0,37,0,18,0L0,0Z"></path></svg>