<?xml version="1.0" standalone="no"?><svg xmlns="http://www.w3.org/2000/svg" viewBox="0 0 1440 320"><path fill="#00cba9" fill-opacity="1" d="M0,96L34.3,90.7C68.6,85,137,75,206,64C274.3,53,343,43,411,42.7C480,43,549,53,617,74.7C685.7,96,754,128,823,165.3C891.4,203,960,245,1029,224C1097.1,203,1166,117,1234,80C1302.9,43,1371,53,1406,58.7L1440,64L1440,320L1405.7,320C1371.4,320,1303,320,1234,320C1165.7,320,1097,320,1029,320C960,320,891,320,823,320C754.3,320,686,320,617,320C548.6,320,480,320,411,320C342.9,320,274,320,206,320C137.1,320,69,320,34,320L0,320Z"></path></svg>