<?xml version="1.0" standalone="no"?><svg xmlns="http://www.w3.org/2000/svg" viewBox="0 0 1440 320"><path fill="#00cba9" fill-opacity="1" d="M0,0L11.4,48C22.9,96,46,192,69,224C91.4,256,114,224,137,224C160,224,183,256,206,266.7C228.6,277,251,267,274,229.3C297.1,192,320,128,343,106.7C365.7,85,389,107,411,138.7C434.3,171,457,213,480,208C502.9,203,526,149,549,160C571.4,171,594,245,617,282.7C640,320,663,320,686,277.3C708.6,235,731,149,754,144C777.1,139,800,213,823,245.3C845.7,277,869,267,891,229.3C914.3,192,937,128,960,117.3C982.9,107,1006,149,1029,149.3C1051.4,149,1074,107,1097,85.3C1120,64,1143,64,1166,85.3C1188.6,107,1211,149,1234,181.3C1257.1,213,1280,235,1303,250.7C1325.7,267,1349,277,1371,240C1394.3,203,1417,117,1429,74.7L1440,32L1440,0L1428.6,0C1417.1,0,1394,0,1371,0C1348.6,0,1326,0,1303,0C1280,0,1257,0,1234,0C1211.4,0,1189,0,1166,0C1142.9,0,1120,0,1097,0C1074.3,0,1051,0,1029,0C1005.7,0,983,0,960,0C937.1,0,914,0,891,0C868.6,0,846,0,823,0C800,0,777,0,754,0C731.4,0,709,0,686,0C662.9,0,640,0,617,0C594.3,0,571,0,549,0C525.7,0,503,0,480,0C457.1,0,434,0,411,0C388.6,0,366,0,343,0C320,0,297,0,274,0C251.4,0,229,0,206,0C182.9,0,160,0,137,0C114.3,0,91,0,69,0C45.7,0,23,0,11,0L0,0Z"></path></svg>